<?xml version="1.0" encoding="UTF-8"?>
<svg id="Calque_1" data-name="Calque 1" xmlns="http://www.w3.org/2000/svg" viewBox="0 0 1660.71 444.54">
  <defs>
    <style>
      .cls-1 {
        font-family: MontserratRoman-Light, Montserrat;
        font-variation-settings: 'wght' 300;
        font-weight: 300;
      }

      .cls-2, .cls-3 {
        fill: #b65d37;
      }

      .cls-3 {
        font-size: 177.02px;
      }

      .cls-4 {
        font-family: MontserratRoman-SemiBold, Montserrat;
        font-variation-settings: 'wght' 600;
        font-weight: 600;
      }
    </style>
  </defs>
  <text class="cls-3" transform="translate(507.62 325.72)"><tspan class="cls-1" x="0" y="0">FIEL</tspan><tspan class="cls-4" x="385.9" y="0">MEDINA</tspan></text>
  <g id="EPofG5">
    <path class="cls-2" d="M257.46.53v59.8c6.89.94,13.9,1.09,20.76,2.26,43.61,7.43,83.21,34.09,107.19,70.92,27.72,42.57,33.3,95.11,16.57,143,4.28,10.51,8.24,21.25,10.67,32.38,2.26,10.36,3.07,20.77,4,31.27l-.23,103.06-2.57.88c-17.43-1.12-36.59,1.43-53.81,0-2.41-.2-2.6-.41-2.8-2.8-1.52-34.47,2.08-70.75.04-105.01-.63-10.54-4.13-23.38-8.19-33.11-3.57-8.57-8.78-16.25-12.94-24.51,2.1-5.93,5.5-11.29,7.93-17.07,11.03-26.33,11.3-54.45,0-80.75-14.82-34.49-48.64-58.48-86.19-61.16v57.22l-9.22.89c-48.02,9.66-77.4,58.79-61.18,105.87,2.63,7.63,6.99,14.53,9.75,22.07-4.26,8.1-9.48,15.68-12.76,24.27-3.47,9.1-5.28,18.49-5.77,28.22l-.04,85.36c-.71.37-1.49.45-2.29.51-17.66,1.28-36.85-1.02-54.67,0-1.45,0-2.05-.99-1.94-2.36,2.53-46.05-7.58-95.4,12.05-138.55-2.53-6.51-3.97-13.28-5.25-20.12-15.59-83.28,45.18-161.22,129.81-165.09l1.08-.65v-55.28c-6.79.24-13.66-.31-20.45-.02-104.32,4.52-194.64,100.27-159.5,206.86,4.27,12.94,11.05,24.67,16.94,36.87,0,1.75-10.77,17.92-12.52,21.08-11.04,19.9-18.36,43-19.36,65.82-2.87,15.83,1,34.31-.83,49.93-.07.63-.05,1.11-.67,1.48H1.27c-.07,0-.76-.66-.85-.87-.01-15.02-.74-30.34-.24-45.4,1.1-33.19,9.62-64.92,24.11-94.62-18.75-45.9-21.2-97.61-5.9-144.86C49.11,63.51,142.28,2.69,240.44.08c5.65-.15,11.43-.14,17.01.45Z"/>
  </g>
</svg>